<svg xmlns="http://www.w3.org/2000/svg" width="20" height="20" viewBox="0 0 20 20" fill="none" aria-hidden="true" type="small" class="css-1aggctr"><path fill-rule="evenodd" clip-rule="evenodd" d="M12.4964 4C12.4964 5.38261 11.3776 6.5 10.0018 6.5C8.62589 6.5 7.5071 5.38261 7.5071 4C7.5071 2.61739 8.62589 1.5 10.0018 1.5C11.3776 1.5 12.4964 2.61739 12.4964 4ZM12.3907 7.20618C13.3654 6.47679 13.9964 5.31218 13.9964 4C13.9964 1.79086 12.2079 0 10.0018 0C7.79557 0 6.0071 1.79086 6.0071 4C6.0071 5.3121 6.63801 6.47664 7.61263 7.20605C6.57462 7.64263 5.79497 8.351 5.23519 9.14598C4.33327 10.4269 4.00049 11.9274 4.00049 12.8834V19.25V20H4.75049H15.2525H16.0025V19.25V12.8834C16.0025 11.9274 15.6697 10.4269 14.7678 9.14598C14.2081 8.35108 13.4285 7.64278 12.3907 7.20618ZM5.50049 12.8834C5.50049 12.2023 5.75646 11.0111 6.46166 10.0096C7.14157 9.04396 8.23658 8.25 10.0015 8.25C11.7664 8.25 12.8614 9.04396 13.5413 10.0096C14.2465 11.0111 14.5025 12.2023 14.5025 12.8834V18.5H5.50049V12.8834Z" fill="currentColor"></path></svg>