<svg xmlns="http://www.w3.org/2000/svg" width="20" height="20" viewBox="0 0 20 20" fill="none" aria-hidden="true" type="small" class="css-1aggctr"><g clip-path="url(#clip0_2835_12395)"><path fill-rule="evenodd" clip-rule="evenodd" d="M12.4996 7C12.4996 10.0376 10.0372 12.5 6.99981 12.5C3.96239 12.5 1.5 10.0376 1.5 7C1.5 3.9624 3.96239 1.5 6.99981 1.5C10.0372 1.5 12.4996 3.9624 12.4996 7ZM11.388 12.454C10.1876 13.4211 8.6613 14 6.99981 14C3.13392 14 0 10.866 0 7C0 3.13401 3.13392 0 6.99981 0C10.8657 0 13.9996 3.13401 13.9996 7C13.9996 8.66411 13.4189 10.1926 12.4492 11.3939L19.9996 18.9395L18.9386 19.9998L11.388 12.454Z" fill="currentColor"></path></g></svg>