<svg class="icon__content" viewBox="0 0 1 1" focusable="false" width="20" height="20" xmlns="http://www.w3.org/2000/svg"><title>Chat with us</title><path d="M.44 0a.469.469 0 00-.41.32C-.01.44 0 .57.05.69c.02.03.04.05.06.09h.01l-.01.1L.1.99V1C.105 1 .19.99.29.97L.475.94H.57C.71.93.84.85.92.73.95.69.96.66.98.615.99.57 1 .54 1 .49a.454.454 0 00-.09-.3.452.452 0 00-.28-.18C.59 0 .58 0 .51 0H.44M.43.1C.36.11.29.14.235.18A.213.213 0 00.18.24.357.357 0 00.1.41V.5c.01.06.02.11.05.15.01.03.025.045.055.08L.22.745.215.81C.21.85.21.88.21.88L.34.86.47.84h.11C.73.82.85.72.89.57.9.53.9.51.9.465.9.43.9.42.89.38A.345.345 0 00.64.11C.6.1.59.1.51.1H.43M.275.3v.05L.28.4h.45V.3H.275M0 .47V.46v.01m.275.08V.6H.58V.5H.275v.05" fill="currentColor" fill-rule="evenodd"></path></svg>