<svg xmlns="http://www.w3.org/2000/svg" width="24" height="24" viewBox="0 0 24 24" fill="none" aria-hidden="true" type="medium" class="css-znq4eo"><path fill-rule="evenodd" clip-rule="evenodd" d="M15.2516 5C15.2516 6.933 13.6846 8.5 11.7516 8.5C9.81856 8.5 8.25156 6.933 8.25156 5C8.25156 3.067 9.81856 1.5 11.7516 1.5C13.6846 1.5 15.2516 3.067 15.2516 5ZM14.7265 9.01905C15.9552 8.10806 16.7516 6.64703 16.7516 5C16.7516 2.23858 14.513 0 11.7516 0C8.99013 0 6.75156 2.23858 6.75156 5C6.75156 6.64703 7.54792 8.10806 8.77659 9.01905C7.18905 9.62112 6.02357 10.6817 5.20443 11.8499C3.96602 13.616 3.5 15.6479 3.5 16.7739V23.25V24H4.25H19.2531H20.0031V23.25V16.7739C20.0031 15.6479 19.5371 13.616 18.2987 11.8499C17.4795 10.6817 16.3141 9.62112 14.7265 9.01905ZM11.7516 10C9.12536 10 7.46414 11.2399 6.43258 12.711C5.37506 14.2192 5 15.9492 5 16.7739V22.5H18.5031V16.7739C18.5031 15.9492 18.1281 14.2192 17.0705 12.711C16.039 11.2399 14.3778 10 11.7516 10Z" fill="currentColor"></path></svg>