<svg xmlns="http://www.w3.org/2000/svg" width="24" height="24" viewBox="0 0 24 24" fill="none" aria-hidden="true" type="medium" class="css-znq4eo"><g clip-path="url(#clip0_2955_61)"><path fill-rule="evenodd" clip-rule="evenodd" d="M16.5323 9.0305C16.5323 13.1917 13.1649 16.561 9.01614 16.561C4.86734 16.561 1.5 13.1917 1.5 9.0305C1.5 4.86927 4.86734 1.5 9.01614 1.5C13.1649 1.5 16.5323 4.86927 16.5323 9.0305ZM14.8606 15.907C13.2867 17.2502 11.246 18.061 9.01614 18.061C4.03666 18.061 0 14.0179 0 9.0305C0 4.04309 4.03666 0 9.01614 0C13.9956 0 18.0323 4.04309 18.0323 9.0305C18.0323 11.2441 17.2371 13.2717 15.9172 14.8423L24.0006 22.9385L22.9408 24L14.8606 15.907Z" fill="currentColor"></path></g></svg>